STARTFONT 2.1
COMMENT $XConsortium: lubI24.bdf,v 1.10 94/04/02 16:25:08 gildea Exp $
COMMENT  (c) Copyright Bigelow & Holmes 1986, 1985. Lucida is a registered
COMMENT  trademark of Bigelow & Holmes. See LEGAL NOTICE file for terms 
COMMENT  of the license. 
COMMENT  
COMMENT  Translation to ISO8859-2 by Cub Soft;  Petr.Kolar@vslib.cz
COMMENT  
FONT -B&H-LucidaBright-Medium-I-Normal--34-240-100-100-P-194-ISO8859-2
SIZE 24 100 100
FONTBOUNDINGBOX 86 39 -19 -7
STARTPROPERTIES 20
COMMENT Begin LogicalFontDescription
FONTNAME_REGISTRY ""
FOUNDRY "B&H"
FAMILY_NAME "LucidaBright"
WEIGHT_NAME "Medium"
SLANT "I"
SETWIDTH_NAME "Normal"
ADD_STYLE_NAME ""
PIXEL_SIZE 34
POINT_SIZE 240
RESOLUTION_X 100
RESOLUTION_Y 100
SPACING "P"
AVERAGE_WIDTH 194
CHARSET_REGISTRY "ISO8859"
CHARSET_ENCODING "2"
COMMENT END LogicalFontDescription
FONT_ASCENT 31
FONT_DESCENT 8
DEFAULT_CHAR 0
COPYRIGHT "Copyright Bigelow & Holmes 1986, 1985., Copyright 1996 Cub Soft"
FACE_NAME "Lucida Bright Italic"
ENDPROPERTIES
CHARS 191
STARTCHAR space
ENCODING 32
SWIDTH 333 0
DWIDTH 10 0
BBX 1 1 0 0
BITMAP
00
ENDCHAR
STARTCHAR exclam
ENCODING 33
SWIDTH 265 0
DWIDTH 9 0
BBX 8 25 3 0
BITMAP
07
0f
0f
0e
0e
0e
0e
0c
1c
1c
1c
18
18
18
10
10
10
30
00
00
00
00
70
f0
e0
ENDCHAR
STARTCHAR quotedbl
ENCODING 34
SWIDTH 377 0
DWIDTH 13 0
BBX 9 9 7 17
BITMAP
e780
e300
e300
e300
6300
6300
6300
4300
4300
ENDCHAR
STARTCHAR numbersign
ENCODING 35
SWIDTH 608 0
DWIDTH 21 0
BBX 21 25 2 0
BITMAP
000c18
001830
001820
001060
003060
0030c0
0060c0
006180
3ffff8
008300
018300
018600
030600
030c00
060c00
060800
ffffe0
0c3000
183000
186000
306000
304000
20c000
60c000
e18000
ENDCHAR
STARTCHAR dollar
ENCODING 36
SWIDTH 608 0
DWIDTH 21 0
BBX 18 30 4 -3
BITMAP
001000
001000
01ff00
03a3c0
0720c0
0e2080
0c2180
1c2000
1c4000
1c4000
1e4000
0f4000
0fc000
03c000
01e000
00f800
00bc00
009c00
011e00
010e00
010e00
010c00
430c00
421c00
c23800
f27000
7fc000
060000
040000
040000
ENDCHAR
STARTCHAR percent
ENCODING 37
SWIDTH 759 0
DWIDTH 26 0
BBX 25 25 3 0
BITMAP
03c00380
0e200600
1c300e00
18301c00
38301800
38303000
30306000
3030c000
30718000
30630000
30e60000
19cc0000
0f1c0000
0038f800
00718c00
00630600
00c70600
01860600
03060600
060e0600
0c0e0e00
180e0c00
38061c00
70073800
e001e000
ENDCHAR
STARTCHAR ampersand
ENCODING 38
SWIDTH 727 0
DWIDTH 25 0
BBX 25 25 2 0
BITMAP
000f8000
0038c000
0070e000
00e06000
00e06000
01e0e000
00e0e000
00e1c000
00e38000
00e70000
01fc0000
07700000
1c707f80
38781e00
70381c00
703c1800
f01c1800
f01e1000
f00e3000
f00f2000
f0074000
70078000
7803c000
1e0fe000
0ff1fc00
ENDCHAR
STARTCHAR apostrophe
ENCODING 39
SWIDTH 265 0
DWIDTH 9 0
BBX 6 10 6 16
BITMAP
3c
3c
7c
78
18
38
30
30
e0
c0
ENDCHAR
STARTCHAR parenleft
ENCODING 40
SWIDTH 310 0
DWIDTH 11 0
BBX 12 32 3 -6
BITMAP
0010
0060
0080
0100
0300
0600
0600
0c00
1c00
1800
3800
3800
7000
7000
7000
f000
e000
e000
e000
e000
e000
e000
e000
e000
e000
6000
6000
6000
2000
1000
1800
0800
ENDCHAR
STARTCHAR parenright
ENCODING 41
SWIDTH 310 0
DWIDTH 11 0
BBX 11 32 0 -6
BITMAP
0200
0300
0100
0080
00c0
00c0
00c0
00e0
00e0
00e0
00e0
00e0
00e0
00e0
00e0
00e0
01e0
01c0
01c0
01c0
0380
0380
0300
0700
0600
0600
0c00
1800
1000
2000
4000
8000
ENDCHAR
STARTCHAR asterisk
ENCODING 42
SWIDTH 458 0
DWIDTH 16 0
BBX 13 12 5 13
BITMAP
0380
0300
0300
4308
7238
fdf8
0400
0f00
1980
7180
71c0
2100
ENDCHAR
STARTCHAR plus
ENCODING 43
SWIDTH 608 0
DWIDTH 21 0
BBX 20 21 2 0
BITMAP
001800
001800
001000
003000
003000
003000
003000
003000
002000
006000
fffff0
006000
004000
00c000
00c000
00c000
00c000
00c000
008000
018000
018000
ENDCHAR
STARTCHAR comma
ENCODING 44
SWIDTH 265 0
DWIDTH 9 0
BBX 6 12 1 -7
BITMAP
3c
3c
7c
78
78
18
38
38
30
30
60
c0
ENDCHAR
STARTCHAR minus
ENCODING 45
SWIDTH 608 0
DWIDTH 21 0
BBX 20 1 2 11
BITMAP
fffff0
ENDCHAR
STARTCHAR period
ENCODING 46
SWIDTH 265 0
DWIDTH 9 0
BBX 5 4 2 0
BITMAP
78
78
f0
f0
ENDCHAR
STARTCHAR slash
ENCODING 47
SWIDTH 458 0
DWIDTH 16 0
BBX 22 32 0 -6
BITMAP
00000c
000018
000030
000030
000060
0000e0
0000c0
000180
000180
000300
000600
000600
000c00
001c00
001800
003000
003000
006000
00e000
00c000
018000
018000
030000
060000
060000
0c0000
1c0000
180000
300000
300000
600000
c00000
ENDCHAR
STARTCHAR zero
ENCODING 48
SWIDTH 608 0
DWIDTH 21 0
BBX 18 25 4 0
BITMAP
007c00
018700
030380
060380
0c01c0
1c01c0
1801c0
3801c0
3801c0
7001c0
7001c0
7001c0
f001c0
f003c0
e00380
e00380
e00380
e00700
e00700
e00e00
700c00
701c00
303800
186000
0fc000
ENDCHAR
STARTCHAR one
ENCODING 49
SWIDTH 608 0
DWIDTH 21 0
BBX 13 25 4 0
BITMAP
07f8
0078
0078
0070
0070
0070
00f0
00f0
00e0
00e0
00e0
01e0
01e0
01c0
01c0
01c0
03c0
03c0
0380
0380
0380
0780
0780
0f80
fff8
ENDCHAR
STARTCHAR two
ENCODING 50
SWIDTH 608 0
DWIDTH 21 0
BBX 19 25 3 0
BITMAP
00fe00
070780
0601c0
0601e0
0c01e0
0001e0
0001e0
0001e0
0001c0
0003c0
000780
000700
001c00
003800
006000
00c000
038000
060000
0c0000
180000
380000
700000
700000
ffff00
fffe00
ENDCHAR
STARTCHAR three
ENCODING 51
SWIDTH 608 0
DWIDTH 21 0
BBX 17 25 4 0
BITMAP
03fc00
070f00
060780
040380
0c0380
000380
000380
000380
000700
000e00
003800
07e000
003800
001e00
000e00
000f00
000f00
000f00
000f00
000e00
401e00
401c00
c03800
e0f000
7f8000
ENDCHAR
STARTCHAR four
ENCODING 52
SWIDTH 608 0
DWIDTH 21 0
BBX 18 25 2 0
BITMAP
0000c0
000180
000380
000780
000b80
001380
002700
004700
008700
010700
020700
040e00
0c0e00
180e00
300e00
600e00
ffffc0
ffff80
001c00
001c00
001c00
003800
003800
007800
03ff00
ENDCHAR
STARTCHAR five
ENCODING 53
SWIDTH 608 0
DWIDTH 21 0
BBX 18 25 4 0
BITMAP
07ffc0
07ffc0
040000
080000
080000
080000
080000
080000
180000
1fc000
007800
003c00
001e00
000e00
000e00
000f00
000e00
000e00
000e00
001e00
401c00
403800
c07000
e0e000
7f8000
ENDCHAR
STARTCHAR six
ENCODING 54
SWIDTH 608 0
DWIDTH 21 0
BBX 18 25 4 0
BITMAP
003f00
00c1c0
0380c0
0700c0
0e00c0
1c0000
1c0000
3c0000
380000
79f800
7e1e00
7c0700
f80700
f00780
f00780
e00780
e00780
e00700
e00700
e00f00
700e00
701c00
303800
1c7000
0fc000
ENDCHAR
STARTCHAR seven
ENCODING 55
SWIDTH 608 0
DWIDTH 21 0
BBX 19 25 5 0
BITMAP
1fffe0
1fffe0
0000c0
000180
000100
000200
000600
000c00
001800
003000
006000
004000
00c000
018000
030000
070000
060000
0e0000
1c0000
3c0000
380000
780000
780000
f00000
f00000
ENDCHAR
STARTCHAR eight
ENCODING 56
SWIDTH 608 0
DWIDTH 21 0
BBX 17 25 4 0
BITMAP
00fc00
038700
070380
0e0380
0e0180
1c0180
1c0380
1e0380
1e0700
0f8c00
07d800
03f000
07f800
187c00
383e00
701f00
700f00
e00f00
e00f00
e00f00
e00e00
f00e00
701c00
387000
0fc000
ENDCHAR
STARTCHAR nine
ENCODING 57
SWIDTH 608 0
DWIDTH 21 0
BBX 18 25 4 0
BITMAP
007c00
018700
070380
0e0380
1c01c0
1c01c0
3c01c0
3801c0
3801c0
3801c0
3801c0
3803c0
3803c0
1c07c0
0e1b80
07e780
000780
000700
000f00
000e00
401c00
c01800
c03000
f0e000
3f8000
ENDCHAR
STARTCHAR colon
ENCODING 58
SWIDTH 265 0
DWIDTH 9 0
BBX 8 18 2 0
BITMAP
0f
1f
1e
1e
00
00
00
00
00
00
00
00
00
00
78
78
f8
f0
ENDCHAR
STARTCHAR semicolon
ENCODING 59
SWIDTH 265 0
DWIDTH 9 0
BBX 9 25 1 -7
BITMAP
0780
0780
0f00
0f00
0000
0000
0000
0000
0000
0000
0000
0000
0000
0000
0000
0000
3c00
7c00
1c00
3800
3800
3800
3000
7000
e000
ENDCHAR
STARTCHAR less
ENCODING 60
SWIDTH 608 0
DWIDTH 21 0
BBX 22 21 2 0
BITMAP
000004
00001c
000078
0001e0
000780
001c00
007000
03c000
0f0000
3c0000
f00000
3c0000
0e0000
078000
01e000
007800
003c00
000f00
0003c0
0000c0
000040
ENDCHAR
STARTCHAR equal
ENCODING 61
SWIDTH 608 0
DWIDTH 21 0
BBX 21 9 2 5
BITMAP
7ffff8
000000
000000
000000
000000
000000
000000
000000
fffff0
ENDCHAR
STARTCHAR greater
ENCODING 62
SWIDTH 608 0
DWIDTH 21 0
BBX 22 21 0 0
BITMAP
080000
0c0000
0f0000
03c000
00f000
007800
001e00
000780
0001c0
0000f0
00003c
0000f0
0003c0
000f00
003800
00e000
038000
1e0000
780000
e00000
800000
ENDCHAR
STARTCHAR question
ENCODING 63
SWIDTH 471 0
DWIDTH 16 0
BBX 13 25 5 0
BITMAP
1fc0
70f0
6078
4038
c038
0038
0038
0078
0070
00c0
0180
0300
0600
0c00
1800
3800
3800
7800
0000
0000
0000
0000
7000
f000
e000
ENDCHAR
STARTCHAR at
ENCODING 64
SWIDTH 861 0
DWIDTH 29 0
BBX 26 25 4 0
BITMAP
000fe000
00701c00
01800600
03000100
04000080
080000c0
100ff040
3010e040
2060e040
40c0e040
4080e040
c180c040
8181c040
8383c040
8382c080
8305c180
838d8300
8399c600
41e0f800
40000000
20000000
30000000
18000000
06010000
01fe0000
ENDCHAR
STARTCHAR A
ENCODING 65
SWIDTH 747 0
DWIDTH 25 0
BBX 25 25 0 0
BITMAP
00004000
0000c000
0000e000
0001e000
0002e000
0002e000
0004e000
0004f000
0008f000
0010f000
00107000
00207000
00607800
00407800
00807800
00807800
01fff800
03003800
02003c00
06003c00
04003c00
08001c00
18001e00
38001e00
fe00ff80
ENDCHAR
STARTCHAR B
ENCODING 66
SWIDTH 606 0
DWIDTH 21 0
BBX 21 25 1 0
BITMAP
07ffc0
01e1f0
01e078
01e078
01e078
01c078
01c078
01c070
03c070
03c0e0
03c1c0
038700
03fe00
078780
0781c0
0700e0
0700f0
0700f0
0f00f0
0f00e0
0e00e0
0e01e0
1e03c0
3e0f80
fffc00
ENDCHAR
STARTCHAR C
ENCODING 67
SWIDTH 714 0
DWIDTH 24 0
BBX 23 25 4 0
BITMAP
000ff8
00783e
01e00e
03800c
07000c
0e000c
1e0000
3c0000
3c0000
780000
780000
700000
f00000
f00000
f00000
f00000
f00000
f00000
f00000
700000
780000
380000
3c0060
0f03c0
03fc00
ENDCHAR
STARTCHAR D
ENCODING 68
SWIDTH 770 0
DWIDTH 26 0
BBX 26 25 1 0
BITMAP
07fff800
01e03e00
01e00f00
01e00780
01c00380
01c003c0
01c003c0
03c003c0
03c003c0
038003c0
038003c0
038003c0
078003c0
07800380
07800380
07000780
07000700
0f000f00
0f000e00
0f001e00
0e003c00
0e007800
1e00f000
3f03c000
fffe0000
ENDCHAR
STARTCHAR E
ENCODING 69
SWIDTH 569 0
DWIDTH 19 0
BBX 22 25 1 0
BITMAP
07fffc
00e00c
00e018
01e018
01e000
01e000
01c000
01c000
01c000
03c000
03c040
03c0c0
03ffc0
078080
078080
078000
070000
070000
0f0000
0f0000
0f0000
0e0060
1e0060
3f00c0
ffffc0
ENDCHAR
STARTCHAR F
ENCODING 70
SWIDTH 551 0
DWIDTH 19 0
BBX 22 25 1 0
BITMAP
07fffc
00e00c
00e018
01e018
01e000
01e000
01c000
01c000
03c000
03c000
03c040
03c0c0
03ff80
078080
078080
078000
070000
070000
0f0000
0f0000
0f0000
0e0000
1e0000
3f0000
ffe000
ENDCHAR
STARTCHAR G
ENCODING 71
SWIDTH 756 0
DWIDTH 26 0
BBX 23 25 4 0
BITMAP
001ff8
00701e
01e00c
03800c
07000c
0e0000
1e0000
3c0000
3c0000
780000
780000
700000
f00000
f00000
f007fe
f000f0
f000f0
f000e0
f000e0
7001e0
7801e0
7801e0
3c01c0
0f0380
03fc00
ENDCHAR
STARTCHAR H
ENCODING 72
SWIDTH 776 0
DWIDTH 26 0
BBX 30 25 1 0
BITMAP
07fe0ffc
01f001f0
01e001e0
01e001c0
01e001c0
01c003c0
01c003c0
01c00380
03c00380
03c00380
03c00780
03800780
03ffff00
07800700
07800700
07800f00
07000f00
07000e00
0f000e00
0f000e00
0f001e00
0e001e00
1e001e00
3e003e00
ffc1ff80
ENDCHAR
STARTCHAR I
ENCODING 73
SWIDTH 325 0
DWIDTH 11 0
BBX 15 25 1 0
BITMAP
07fe
00f8
00f0
00e0
01e0
01e0
01c0
01c0
01c0
03c0
03c0
0380
0380
0380
0780
0780
0700
0700
0f00
0f00
0f00
0e00
1e00
3e00
ffc0
ENDCHAR
STARTCHAR J
ENCODING 74
SWIDTH 422 0
DWIDTH 14 0
BBX 19 31 0 -6
BITMAP
007fe0
000f80
000f00
000e00
000e00
001e00
001e00
001e00
001c00
001c00
001c00
003c00
003c00
003c00
003800
003800
007800
007800
007800
007000
007000
007000
00f000
00f000
00e000
00e000
60c000
61c000
e18000
e30000
fc0000
ENDCHAR
STARTCHAR K
ENCODING 75
SWIDTH 698 0
DWIDTH 24 0
BBX 26 25 1 0
BITMAP
07fe1fc0
01f00700
01e00c00
01e01800
01e03000
01c06000
01c08000
01c10000
03c20000
03cc0000
03980000
03b80000
03f80000
07bc0000
079e0000
079e0000
070f0000
07078000
0f078000
0f03c000
0f01e000
0e01e000
1e00f000
3e00f800
ffc3fe00
ENDCHAR
STARTCHAR L
ENCODING 76
SWIDTH 572 0
DWIDTH 19 0
BBX 19 25 1 0
BITMAP
07fe00
01f000
01e000
01e000
01e000
01c000
01c000
01c000
03c000
03c000
038000
038000
038000
078000
078000
070000
070000
070000
0f0000
0f0000
0f0000
0e0060
1e0060
3e00c0
ffffc0
ENDCHAR
STARTCHAR M
ENCODING 77
SWIDTH 865 0
DWIDTH 29 0
BBX 33 25 1 0
BITMAP
07e0003f80
00f0003e00
00f0007c00
01f000f800
01f000b800
01f8013800
01f8017800
0138027000
0338067000
033c047000
033c087000
031c08f000
021c10e000
061e30e000
061e20e000
060e40e000
060ec1e000
040e81c000
0c0f81c000
0c0701c000
0c0601c000
0c0603c000
1c0003c000
3c0007c000
ff001ff000
ENDCHAR
STARTCHAR N
ENCODING 78
SWIDTH 762 0
DWIDTH 26 0
BBX 29 25 1 0
BITMAP
07c003f8
01e000e0
01e000c0
01f000c0
01f80080
01780080
013c0080
033c0180
031e0180
031e0100
020f0100
02070100
06078300
06038300
0603c200
0601e200
0401e200
0400f600
0c00f600
0c007e00
0c003c00
08003c00
18001c00
38001c00
ff000c00
ENDCHAR
STARTCHAR O
ENCODING 79
SWIDTH 783 0
DWIDTH 27 0
BBX 24 25 4 0
BITMAP
001fc0
007070
01c03c
03801c
07000e
0e000e
1c000f
3c000f
38000f
78000f
78000f
70000f
f0000f
f0000e
f0001e
f0001e
f0001c
f0003c
f00038
f00070
7000e0
7801c0
3c0380
0e0e00
03f800
ENDCHAR
STARTCHAR P
ENCODING 80
SWIDTH 579 0
DWIDTH 20 0
BBX 22 25 1 0
BITMAP
07ffe0
01e078
01e038
01e03c
01e03c
01c03c
01c03c
01c03c
03c038
03c078
038070
0380f0
0381c0
078780
07fc00
078000
070000
070000
0f0000
0f0000
0f0000
0e0000
1e0000
3e0000
ffc000
ENDCHAR
STARTCHAR Q
ENCODING 81
SWIDTH 788 0
DWIDTH 27 0
BBX 27 32 4 -7
BITMAP
001fc000
00707000
01c03800
03801c00
07001e00
0e000e00
1c000e00
3c000f00
38000f00
78000f00
70000f00
70000f00
f0000e00
f0000e00
f0001e00
f0001e00
f0001c00
f0003c00
f0003800
f0007800
7000f000
7801e000
3c03e000
1e0f8000
03ff0000
000c0000
00080000
00060000
00010000
0000e020
00003fc0
00000f80
ENDCHAR
STARTCHAR R
ENCODING 82
SWIDTH 686 0
DWIDTH 23 0
BBX 23 25 1 0
BITMAP
07ffe0
00e0f8
00e03c
00e03c
01e01c
01e03c
01c03c
01c03c
01c038
03c078
03c0f0
0383c0
03ff00
078f00
078f00
078780
070780
0703c0
0f03c0
0f01e0
0f01e0
0e00f0
1e00f0
3e0078
ffc07e
ENDCHAR
STARTCHAR S
ENCODING 83
SWIDTH 549 0
DWIDTH 19 0
BBX 20 25 2 0
BITMAP
007f80
01c1f0
038060
070060
070060
0f00e0
0f0000
0f0000
0f0000
078000
03c000
01f000
00f800
007c00
003e00
001f00
000f00
000f00
000f00
600f00
600e00
e00e00
e01c00
f03800
1fc000
ENDCHAR
STARTCHAR T
ENCODING 84
SWIDTH 663 0
DWIDTH 23 0
BBX 22 25 5 0
BITMAP
7ffffc
60780c
c07808
c07018
007000
007000
00f000
00f000
00e000
00e000
00e000
01e000
01e000
01e000
01c000
01c000
03c000
03c000
03c000
038000
038000
078000
078000
0f8000
7ff000
ENDCHAR
STARTCHAR U
ENCODING 85
SWIDTH 727 0
DWIDTH 25 0
BBX 24 25 5 0
BITMAP
ffc0ff
1f001c
1e0018
1c0010
1c0030
3c0030
3c0030
380020
380020
380060
780060
780060
700040
700040
7000c0
f000c0
f000c0
e00080
e00180
e00180
f00300
700200
780600
3c1800
0fe000
ENDCHAR
STARTCHAR V
ENCODING 86
SWIDTH 656 0
DWIDTH 22 0
BBX 24 25 4 0
BITMAP
ff803f
3c000c
3c0008
3c0010
1c0010
1c0020
1c0020
1e0040
1e00c0
1e0080
0e0100
0e0100
0f0200
0f0600
0f0400
070800
070800
071000
07b000
07a000
03c000
03c000
038000
038000
030000
ENDCHAR
STARTCHAR W
ENCODING 87
SWIDTH 878 0
DWIDTH 30 0
BBX 31 25 4 0
BITMAP
ff8180fe
3c018018
3c038030
3c038020
3c078020
3c078040
3c0fc040
3c0bc080
1c1bc080
1c13c100
1c11c100
1c21c200
1c21c200
1c41c400
1c41c400
1c81c800
1c81c800
1d01d000
1d01d000
1e01e000
1e01e000
1c01c000
1c01c000
18018000
18008000
ENDCHAR
STARTCHAR X
ENCODING 88
SWIDTH 624 0
DWIDTH 21 0
BBX 27 25 0 0
BITMAP
03fe0fe0
01f00380
00f00200
00780400
00780800
00381800
003c1000
003c2000
001e4000
001e8000
000f0000
000f0000
000f0000
000f8000
00178000
0033c000
0063c000
00c1c000
0181e000
0101e000
0200f000
0400f000
0c007800
38007800
fe03fe00
ENDCHAR
STARTCHAR Y
ENCODING 89
SWIDTH 663 0
DWIDTH 23 0
BBX 23 25 4 0
BITMAP
ff80fe
3e0038
3e0030
1e0060
1e0040
0f0080
0f0100
070200
078600
078400
038800
03d000
01e000
01e000
01c000
01c000
01c000
03c000
03c000
038000
038000
078000
078000
0f8000
3ff000
ENDCHAR
STARTCHAR Z
ENCODING 90
SWIDTH 633 0
DWIDTH 21 0
BBX 22 25 2 0
BITMAP
07fffc
070038
060078
0600f0
0e01e0
0001c0
000380
000780
000f00
001e00
001c00
003c00
007800
00f000
01e000
01e000
03c000
078000
0f0000
0e0000
1e0000
3c0060
7800c0
f001c0
ffffc0
ENDCHAR
STARTCHAR bracketleft
ENCODING 91
SWIDTH 310 0
DWIDTH 11 0
BBX 13 32 1 -6
BITMAP
03f8
0380
0380
0380
0700
0700
0700
0700
0700
0e00
0e00
0e00
0e00
0e00
1c00
1c00
1c00
1c00
1c00
3800
3800
3800
3800
3800
7000
7000
7000
7000
7000
e000
e000
fe00
ENDCHAR
STARTCHAR backslash
ENCODING 92
SWIDTH 458 0
DWIDTH 16 0
BBX 9 32 5 -6
BITMAP
c000
c000
4000
6000
6000
6000
6000
2000
3000
3000
3000
1000
1800
1800
1800
1800
0c00
0c00
0c00
0c00
0400
0600
0600
0600
0600
0300
0300
0300
0300
0100
0180
0180
ENDCHAR
STARTCHAR bracketright
ENCODING 93
SWIDTH 310 0
DWIDTH 11 0
BBX 13 32 0 -6
BITMAP
03f8
0038
0038
0070
0070
0070
0070
0070
00e0
00e0
00e0
00e0
00e0
01c0
01c0
01c0
01c0
01c0
0380
0380
0380
0380
0380
0700
0700
0700
0700
0700
0e00
0e00
0e00
fe00
ENDCHAR
STARTCHAR asciicircum
ENCODING 94
SWIDTH 608 0
DWIDTH 21 0
BBX 19 20 1 4
BITMAP
000400
000c00
000c00
001a00
003200
003200
006300
00c100
00c100
018100
030080
030080
060080
0c00c0
0c0040
180040
300040
300020
600020
e00020
ENDCHAR
STARTCHAR underscore
ENCODING 95
SWIDTH 500 0
DWIDTH 17 0
BBX 14 2 2 -3
BITMAP
fffc
fffc
ENDCHAR
STARTCHAR grave
ENCODING 96
SWIDTH 560 0
DWIDTH 19 0
BBX 6 5 11 21
BITMAP
f0
70
38
18
0c
ENDCHAR
STARTCHAR a
ENCODING 97
SWIDTH 608 0
DWIDTH 21 0
BBX 18 18 3 0
BITMAP
00ffc0
0107c0
0203c0
040380
0c0380
180380
380780
380780
700700
700f00
f01f00
f01f00
f02f00
f06e00
f0ce00
f18e00
7f0e00
3c1fc0
ENDCHAR
STARTCHAR b
ENCODING 98
SWIDTH 596 0
DWIDTH 20 0
BBX 18 26 3 0
BITMAP
3f0000
070000
070000
0f0000
0f0000
0e0000
0e0000
0e0000
0e0f00
1e1f80
1c63c0
1cc3c0
1c83c0
1d03c0
3e03c0
3a03c0
3c0380
380380
380700
780700
700600
700c00
700800
701000
f82000
ffc000
ENDCHAR
STARTCHAR c
ENCODING 99
SWIDTH 487 0
DWIDTH 17 0
BBX 15 18 3 0
BITMAP
00fe
030e
0406
0c06
1806
3800
7000
7000
7000
f000
f000
f000
f000
f000
f000
7008
3830
1fc0
ENDCHAR
STARTCHAR d
ENCODING 100
SWIDTH 608 0
DWIDTH 21 0
BBX 20 26 3 0
BITMAP
0007f0
0000f0
0000e0
0000e0
0000e0
0000e0
0001e0
0001c0
00ffc0
0103c0
0201c0
0403c0
0c0380
180380
380380
380380
700780
700f00
f00f00
f01700
f03700
f06f00
f0ce00
f18e00
7f0e00
3c1fc0
ENDCHAR
STARTCHAR e
ENCODING 101
SWIDTH 518 0
DWIDTH 18 0
BBX 15 18 3 0
BITMAP
00f8
031c
041e
0c0e
181e
381c
701c
7038
7070
f1e0
ff00
e000
e000
f000
f006
700c
3c30
1fc0
ENDCHAR
STARTCHAR f
ENCODING 102
SWIDTH 380 0
DWIDTH 13 0
BBX 17 34 2 -7
BITMAP
001f80
006180
00c180
01c100
018300
038000
038000
078000
070000
3ff800
070000
0f0000
0e0000
0e0000
0e0000
0e0000
1e0000
1c0000
1c0000
1c0000
1c0000
3c0000
3c0000
380000
380000
380000
780000
780000
700000
700000
700000
f00000
f00000
e00000
ENDCHAR
STARTCHAR g
ENCODING 103
SWIDTH 602 0
DWIDTH 20 0
BBX 19 25 2 -7
BITMAP
007fe0
0083e0
0101e0
0201c0
0601c0
0e01c0
0c01c0
1c03c0
3c0380
380780
380f80
780b80
781f80
783700
786700
38c700
3f8700
1e0e00
000e00
000e00
800c00
c01c00
601800
7c2000
3fc000
ENDCHAR
STARTCHAR h
ENCODING 104
SWIDTH 631 0
DWIDTH 21 0
BBX 18 26 3 0
BITMAP
3f0000
070000
070000
0f0000
0f0000
0e0000
0e0000
0e0000
1e0f00
1e1f80
1c73c0
1cc3c0
1d8380
3d0380
3e0380
3e0380
3c0780
380700
780700
780700
700700
700f00
700e00
f00e00
f00e00
e01fc0
ENDCHAR
STARTCHAR i
ENCODING 105
SWIDTH 289 0
DWIDTH 10 0
BBX 8 25 4 0
BITMAP
07
0f
0e
00
00
00
00
fe
1c
1c
1c
1c
3c
38
38
38
38
78
70
70
70
70
f0
f0
fc
ENDCHAR
STARTCHAR j
ENCODING 106
SWIDTH 343 0
DWIDTH 12 0
BBX 17 32 -2 -7
BITMAP
000380
000780
000700
000000
000000
000000
000000
007f00
000e00
000e00
000e00
001e00
001e00
001c00
001c00
001c00
003c00
003c00
003800
003800
003800
007800
007800
007000
007000
00f000
00e000
40e000
40c000
c18000
e30000
fc0000
ENDCHAR
STARTCHAR k
ENCODING 107
SWIDTH 560 0
DWIDTH 19 0
BBX 17 26 3 0
BITMAP
3f0000
070000
070000
0f0000
0f0000
0e0000
0e0000
0e0000
1e0780
1e0700
1c0700
1c0e00
1c1c00
3c3000
3cc000
390000
3f8000
3b8000
7bc000
79e000
71e000
70f000
707800
f07c00
f03e00
e01f80
ENDCHAR
STARTCHAR l
ENCODING 108
SWIDTH 289 0
DWIDTH 10 0
BBX 9 26 3 0
BITMAP
3f80
0780
0700
0700
0700
0f00
0f00
0e00
0e00
1e00
1e00
1e00
1c00
1c00
3c00
3c00
3c00
3800
3800
7800
7800
7000
7000
7000
f000
fe00
ENDCHAR
STARTCHAR m
ENCODING 109
SWIDTH 944 0
DWIDTH 32 0
BBX 29 18 3 0
BITMAP
fe0f01e0
1e1f83f0
1c738e70
1cc39c78
1d839870
1d03b070
3f03e070
3e07c070
3c0780f0
380780e0
380700e0
780700e0
700f01e0
700e01e0
700e01c0
700e01c0
f01e01c0
e01e03f8
ENDCHAR
STARTCHAR n
ENCODING 110
SWIDTH 631 0
DWIDTH 21 0
BBX 18 18 3 0
BITMAP
fe0f00
1e1f80
1c73c0
1cc3c0
1d8380
3d0380
3e0380
3e0380
3c0780
380700
780700
780700
700700
700f00
700e00
f00e00
f00e00
e01fc0
ENDCHAR
STARTCHAR o
ENCODING 111
SWIDTH 560 0
DWIDTH 19 0
BBX 17 18 3 0
BITMAP
00fc00
030e00
0e0700
1c0700
1c0780
380780
780780
700780
700780
f00700
f00700
f00f00
f00e00
f01c00
f01800
703000
78e000
1f8000
ENDCHAR
STARTCHAR p
ENCODING 112
SWIDTH 608 0
DWIDTH 21 0
BBX 20 25 2 -7
BITMAP
3f03c0
0f0fe0
0f18f0
0f30f0
0f60f0
0ec0f0
0e80f0
0f00f0
1e00e0
1e00e0
1c01c0
1c01c0
1c0180
3c0300
380200
380400
3c0800
3ff000
780000
700000
700000
700000
700000
f00000
e00000
ENDCHAR
STARTCHAR q
ENCODING 113
SWIDTH 599 0
DWIDTH 20 0
BBX 18 25 3 -7
BITMAP
00ffc0
0107c0
0203c0
040380
0c0380
180380
380380
380780
700700
700f00
f01f00
f01700
f02f00
f06e00
f0ce00
f18e00
7f0e00
3c1e00
001c00
001c00
001c00
001c00
003c00
003800
003800
ENDCHAR
STARTCHAR r
ENCODING 114
SWIDTH 470 0
DWIDTH 16 0
BBX 15 18 4 0
BITMAP
fe0e
1c1c
1c7c
1cf8
1cc0
3d00
3a00
3c00
3c00
3800
7800
7800
7000
7000
7000
f000
f000
e000
ENDCHAR
STARTCHAR s
ENCODING 115
SWIDTH 440 0
DWIDTH 15 0
BBX 14 18 2 0
BITMAP
03f8
061c
0c0c
1c0c
1c08
1e00
0f00
0f80
07c0
03e0
01e0
00f0
0070
4070
c070
c070
f0e0
3f80
ENDCHAR
STARTCHAR t
ENCODING 116
SWIDTH 355 0
DWIDTH 12 0
BBX 11 23 4 0
BITMAP
0200
0e00
1e00
1e00
1c00
ffe0
1c00
1c00
3c00
3800
3800
3800
7800
7800
7000
7000
7000
f000
f000
f000
7000
7000
3e00
ENDCHAR
STARTCHAR u
ENCODING 117
SWIDTH 630 0
DWIDTH 21 0
BBX 18 18 3 0
BITMAP
fe1fc0
1c03c0
1c0380
1c0380
3c0380
380380
380780
380700
380700
780f00
700f00
701f00
702e00
704e00
f08e00
f10e00
7e1e00
381fc0
ENDCHAR
STARTCHAR v
ENCODING 118
SWIDTH 558 0
DWIDTH 19 0
BBX 19 18 2 0
BITMAP
fc01e0
3e00e0
1e00e0
0f00e0
0f00e0
0f00c0
070180
070100
078300
038600
038c00
038800
039000
03a000
03c000
038000
038000
030000
ENDCHAR
STARTCHAR w
ENCODING 119
SWIDTH 805 0
DWIDTH 27 0
BBX 27 18 2 0
BITMAP
fc0201e0
3c0300e0
1c0700e0
1e0700c0
0e0781c0
0e0f8180
0e0b8100
0f1b8300
0713c200
0731c400
0761cc00
0741c800
07c1d000
0781f000
0781e000
0701c000
06018000
06018000
ENDCHAR
STARTCHAR x
ENCODING 120
SWIDTH 510 0
DWIDTH 17 0
BBX 17 18 2 0
BITMAP
7e0700
1e0380
0f0300
070300
078600
038800
03d000
01e000
01e000
01e000
06f000
0cf000
187800
307800
603800
e03c00
e01e00
f01f80
ENDCHAR
STARTCHAR y
ENCODING 121
SWIDTH 558 0
DWIDTH 19 0
BBX 21 25 0 -7
BITMAP
3f0078
0f8038
078038
038038
038030
03c070
01c060
01c0c0
01c080
01c100
01e300
00e600
00e400
00e800
00f000
00f000
00e000
00c000
008000
010000
030000
0e0000
1c0000
380000
f80000
ENDCHAR
STARTCHAR z
ENCODING 122
SWIDTH 536 0
DWIDTH 18 0
BBX 18 18 2 0
BITMAP
0fffc0
0c0380
080700
180f00
001e00
003c00
007800
00f000
00e000
01c000
038000
078000
0f0000
1e0000
3c0300
780300
700600
fffe00
ENDCHAR
STARTCHAR braceleft
ENCODING 123
SWIDTH 337 0
DWIDTH 11 0
BBX 12 32 3 -6
BITMAP
00f0
0180
0300
0300
0700
0700
0700
0700
0700
0700
0600
0600
0600
0c00
0c00
1800
e000
3000
1800
1800
1800
3800
3800
7800
7000
7000
e000
e000
e000
e000
7000
1c00
ENDCHAR
STARTCHAR bar
ENCODING 124
SWIDTH 241 0
DWIDTH 8 0
BBX 8 32 2 -6
BITMAP
03
07
07
06
06
06
06
0e
0c
0c
0c
0c
0c
1c
18
18
18
18
38
30
30
30
30
30
70
60
60
60
60
e0
e0
c0
ENDCHAR
STARTCHAR braceright
ENCODING 125
SWIDTH 337 0
DWIDTH 11 0
BBX 12 32 3 -6
BITMAP
0380
00c0
0060
0060
0070
00e0
00e0
01e0
01c0
01c0
0180
0380
0180
0180
00c0
0070
0180
0300
0600
0600
0e00
0e00
0e00
0e00
0e00
0e00
0e00
0e00
0c00
1c00
3800
e000
ENDCHAR
STARTCHAR asciitilde
ENCODING 126
SWIDTH 608 0
DWIDTH 21 0
BBX 21 8 2 6
BITMAP
0f0000
1fc008
23e018
60f010
407830
c03c20
801fe0
800780
ENDCHAR
STARTCHAR nobreakspace
ENCODING 160
SWIDTH 333 0
DWIDTH 10 0
BBX 1 1 0 0
BITMAP
00
ENDCHAR
STARTCHAR Aogonek
ENCODING 161
SWIDTH 747 0
DWIDTH 25 0
BBX 25 30 0 -5
BITMAP
00004000
0000c000
0000e000
0001e000
0002e000
0002e000
0004e000
0004f000
0008f000
0010f000
00107000
00207000
00607800
00407800
00807800
00807800
01fff800
03003800
02003c00
06003c00
04003c00
08001c00
18001e00
38001e00
fe00ff80
000c0000
00180000
00300000
00380000
001e0000
ENDCHAR
STARTCHAR breve
ENCODING 162
SWIDTH 560 0
DWIDTH 19 0
BBX 11 5 10 21
BITMAP
8020
c040
e380
7f00
3e00
ENDCHAR
STARTCHAR Lstroke
ENCODING 163
SWIDTH 572 0
DWIDTH 19 0
BBX 19 25 0 0
BITMAP
07fe00
00f000
00e000
01e000
01e000
01e000
01c000
01c000
03c000
03cc00
03f000
03c000
038000
0f8000
378000
678000
070000
070000
0f0000
0f0000
0f0000
0e0060
1e0060
1e00c0
ffffc0
ENDCHAR
STARTCHAR currency
ENCODING 164
SWIDTH 608 0
DWIDTH 21 0
BBX 23 22 1 1
BITMAP
080002
080004
040008
023e10
02c1a0
0180c0
030040
060060
060060
0c0060
0c0060
0c0060
0c0040
0c00c0
0c0080
040180
060300
0f0780
19f880
200040
400020
800020
ENDCHAR
STARTCHAR Lcaron
ENCODING 165
SWIDTH 660 0
DWIDTH 22 0
BBX 22 28 1 0
BITMAP
00003c
00003c
00007c
07fe78
01f018
01e038
01e030
01e030
01c0e0
01c0c0
01c000
03c000
03c000
038000
038000
038000
078000
078000
070000
070000
070000
0f0000
0f0000
0f0000
0e0060
1e0060
3e00c0
ffffc0
ENDCHAR
STARTCHAR Sacute
ENCODING 166
SWIDTH 549 0
DWIDTH 19 0
BBX 21 31 2 0
BITMAP
000078
0000e0
0001c0
000300
000600
000000
007f80
01c1f0
038060
070060
070060
0f00e0
0f0000
0f0000
0f0000
078000
03c000
01f000
00f800
007c00
003e00
001f00
000f00
000f00
000f00
600f00
600e00
e00e00
e01c00
f03800
1fc000
ENDCHAR
STARTCHAR section
ENCODING 167
SWIDTH 608 0
DWIDTH 21 0
BBX 18 32 3 -7
BITMAP
007f80
0181c0
030080
060080
0e0000
0e0000
0e0000
0e0000
0f0000
07c000
03f000
05fc00
0c7e00
181f00
180700
380700
380700
3c0700
1f0600
1fc400
07e800
03f800
007c00
003e00
000e00
000e00
000e00
400c00
c01c00
c03800
f07000
3fc000
ENDCHAR
STARTCHAR diaeresis
ENCODING 168
SWIDTH 560 0
DWIDTH 19 0
BBX 10 2 10 23
BITMAP
e1c0
e3c0
ENDCHAR
STARTCHAR Scaron
ENCODING 169
SWIDTH 549 0
DWIDTH 19 0
BBX 20 31 2 0
BITMAP
006030
0030e0
0039c0
001f80
001f00
000000
007f80
01c1f0
038060
070060
070060
0f00e0
0f0000
0f0000
0f0000
078000
03c000
01f000
00f800
007c00
003e00
001f00
000f00
000f00
000f00
600f00
600e00
e00e00
e01c00
f03800
1fc000
ENDCHAR
STARTCHAR Scedilla
ENCODING 170
SWIDTH 549 0
DWIDTH 19 0
BBX 20 33 2 -8
BITMAP
007f80
01c1f0
038060
070060
070060
0f00e0
0f0000
0f0000
0f0000
078000
03c000
01f000
00f800
007c00
003e00
001f00
000f00
000f00
000f00
600f00
600e00
e00e00
e01c00
f03800
1fc000
002000
004000
00e000
007000
003000
003000
007000
01e000
ENDCHAR
STARTCHAR Tcaron
ENCODING 171
SWIDTH 663 0
DWIDTH 23 0
BBX 22 31 5 0
BITMAP
0180c0
00c380
00e700
007e00
007c00
000000
7ffffc
60780c
c07808
c07018
007000
007000
00f000
00f000
00e000
00e000
00e000
01e000
01e000
01e000
01c000
01c000
03c000
03c000
03c000
038000
038000
078000
078000
0f8000
7ff000
ENDCHAR
STARTCHAR Zacute
ENCODING 172
SWIDTH 633 0
DWIDTH 21 0
BBX 22 31 2 0
BITMAP
00003c
000070
0000e0
000180
000300
000000
07fffc
070038
060078
0600f0
0e01e0
0001c0
000380
000780
000f00
001e00
001c00
003c00
007800
00f000
01e000
01e000
03c000
078000
0f0000
0e0000
1e0000
3c0060
7800c0
f001c0
ffffc0
ENDCHAR
STARTCHAR hyphen
ENCODING 173
SWIDTH 313 0
DWIDTH 11 0
BBX 8 2 3 10
BITMAP
ff
ff
ENDCHAR
STARTCHAR Zcaron
ENCODING 174
SWIDTH 633 0
DWIDTH 21 0
BBX 22 31 2 0
BITMAP
003018
001870
001ce0
000fc0
000f80
000000
07fffc
070038
060078
0600f0
0e01e0
0001c0
000380
000780
000f00
001e00
001c00
003c00
007800
00f000
01e000
01e000
03c000
078000
0f0000
0e0000
1e0000
3c0060
7800c0
f001c0
ffffc0
ENDCHAR
STARTCHAR Zabovedot
ENCODING 175
SWIDTH 633 0
DWIDTH 21 0
BBX 22 29 2 0
BITMAP
000380
000780
000700
000000
07fffc
070038
060078
0600f0
0e01e0
0001c0
000380
000780
000f00
001e00
001c00
003c00
007800
00f000
01e000
01e000
03c000
078000
0f0000
0e0000
1e0000
3c0060
7800c0
f001c0
ffffc0
ENDCHAR
STARTCHAR degree
ENCODING 176
SWIDTH 277 0
DWIDTH 9 0
BBX 6 6 6 19
BITMAP
70
c8
84
84
c8
70
ENDCHAR
STARTCHAR aogonek
ENCODING 177
SWIDTH 608 0
DWIDTH 21 0
BBX 18 23 3 -5
BITMAP
00ffc0
0107c0
0203c0
040380
0c0380
180380
380780
380780
700700
700f00
f01f00
f01f00
f02f00
f06e00
f0ce00
f18e00
7f0e00
3c1fc0
00c000
018000
030000
038000
01e000
ENDCHAR
STARTCHAR ogonek
ENCODING 178
SWIDTH 560 0
DWIDTH 19 0
BBX 5 5 6 -6
BITMAP
30
60
c0
e0
78
ENDCHAR
STARTCHAR lstroke
ENCODING 179
SWIDTH 289 0
DWIDTH 10 0
BBX 11 26 2 0
BITMAP
1fc0
0380
0380
0380
0380
0780
0700
0700
0700
0700
0f00
0ee0
0f80
7e00
ce00
1e00
1c00
1c00
1c00
1c00
3c00
3800
3800
3800
3800
7f00
ENDCHAR
STARTCHAR acute
ENCODING 180
SWIDTH 560 0
DWIDTH 19 0
BBX 8 5 12 21
BITMAP
0f
1c
38
60
c0
ENDCHAR
STARTCHAR lcaron
ENCODING 181
SWIDTH 510 0
DWIDTH 17 0
BBX 16 29 3 0
BITMAP
000f
000f
001f
3f9e
0786
070e
070c
070c
0f38
0f30
0e00
0e00
1e00
1e00
1e00
1c00
1c00
3c00
3c00
3c00
3800
3800
7800
7800
7000
7000
7000
f000
fe00
ENDCHAR
STARTCHAR sacute
ENCODING 182
SWIDTH 440 0
DWIDTH 15 0
BBX 17 24 2 0
BITMAP
000780
000e00
001c00
003000
006000
000000
03f800
061c00
0c0c00
1c0c00
1c0800
1e0000
0f0000
0f8000
07c000
03e000
01e000
00f000
007000
407000
c07000
c07000
f0e000
3f8000
ENDCHAR
STARTCHAR caron
ENCODING 183
SWIDTH 560 0
DWIDTH 19 0
BBX 11 5 10 21
BITMAP
c060
61c0
7380
3f00
3e00
ENDCHAR
STARTCHAR cedilla
ENCODING 184
SWIDTH 560 0
DWIDTH 19 0
BBX 5 8 6 -7
BITMAP
10
20
70
38
18
18
38
f0
ENDCHAR
STARTCHAR scaron
ENCODING 185
SWIDTH 440 0
DWIDTH 15 0
BBX 16 24 2 0
BITMAP
0603
030e
039c
01f8
01f0
0000
03f8
061c
0c0c
1c0c
1c08
1e00
0f00
0f80
07c0
03e0
01e0
00f0
0070
4070
c070
c070
f0e0
3f80
ENDCHAR
STARTCHAR scedilla
ENCODING 186
SWIDTH 440 0
DWIDTH 15 0
BBX 14 26 2 -8
BITMAP
03f8
061c
0c0c
1c0c
1c08
1e00
0f00
0f80
07c0
03e0
01e0
00f0
0070
4070
c070
c070
f0e0
3f80
0100
0200
0700
0380
0180
0180
0380
0f00
ENDCHAR
STARTCHAR tcaron
ENCODING 187
SWIDTH 450 0
DWIDTH 15 0
BBX 14 32 4 0
BITMAP
003c
003c
007c
0078
0018
0038
0030
0030
00e0
02c0
0e00
1e00
1e00
1c00
ffe0
1c00
1c00
3c00
3800
3800
3800
7800
7800
7000
7000
7000
f000
f000
f000
7000
7000
3e00
ENDCHAR
STARTCHAR zacute
ENCODING 188
SWIDTH 536 0
DWIDTH 18 0
BBX 19 24 2 0
BITMAP
0001e0
000380
000700
000c00
001800
000000
0fffc0
0c0380
080700
180f00
001e00
003c00
007800
00f000
00e000
01c000
038000
078000
0f0000
1e0000
3c0300
780300
700600
fffe00
ENDCHAR
STARTCHAR doubleacute
ENCODING 189
SWIDTH 560 0
DWIDTH 19 0
BBX 11 5 11 21
BITMAP
0ee0
1980
3300
6600
cc00
ENDCHAR
STARTCHAR zcaron
ENCODING 190
SWIDTH 536 0
DWIDTH 18 0
BBX 18 24 2 0
BITMAP
0180c0
00c380
00e700
007e00
007c00
000000
0fffc0
0c0380
080700
180f00
001e00
003c00
007800
00f000
00e000
01c000
038000
078000
0f0000
1e0000
3c0300
780300
700600
fffe00
ENDCHAR
STARTCHAR zabovedot
ENCODING 191
SWIDTH 536 0
DWIDTH 18 0
BBX 18 22 2 0
BITMAP
001c00
003c00
003800
000000
0fffc0
0c0380
080700
180f00
001e00
003c00
007800
00f000
00e000
01c000
038000
078000
0f0000
1e0000
3c0300
780300
700600
fffe00
ENDCHAR
STARTCHAR Racute
ENCODING 192
SWIDTH 686 0
DWIDTH 23 0
BBX 23 31 1 0
BITMAP
00003c
000070
0000e0
000180
000300
000000
07ffe0
00e0f8
00e03c
00e03c
01e01c
01e03c
01c03c
01c03c
01c038
03c078
03c0f0
0383c0
03ff00
078f00
078f00
078780
070780
0703c0
0f03c0
0f01e0
0f01e0
0e00f0
1e00f0
3e0078
ffc07e
ENDCHAR
STARTCHAR Aacute
ENCODING 193
SWIDTH 747 0
DWIDTH 25 0
BBX 25 32 0 0
BITMAP
00000f00
00001c00
00003800
00006000
0000c000
00000000
00000000
00004000
0000c000
0000e000
0001e000
0002e000
0002e000
0004e000
0004f000
0008f000
0010f000
00107000
00207000
00607800
00407800
00807800
00807800
01fff800
03003800
02003c00
06003c00
04003c00
08001c00
18001e00
38001e00
fe00ff80
ENDCHAR
STARTCHAR Acircumflex
ENCODING 194
SWIDTH 747 0
DWIDTH 25 0
BBX 25 32 0 0
BITMAP
0000f800
0001f800
00039c00
00070c00
000c0600
00000000
00000000
00004000
0000c000
0000e000
0001e000
0002e000
0002e000
0004e000
0004f000
0008f000
0010f000
00107000
00207000
00607800
00407800
00807800
00807800
01fff800
03003800
02003c00
06003c00
04003c00
08001c00
18001e00
38001e00
fe00ff80
ENDCHAR
STARTCHAR Abreve
ENCODING 195
SWIDTH 747 0
DWIDTH 25 0
BBX 25 31 0 0
BITMAP
00020080
00030100
00038e00
0001fc00
0000f800
00000000
00004000
0000c000
0000e000
0001e000
0002e000
0002e000
0004e000
0004f000
0008f000
0010f000
00107000
00207000
00607800
00407800
00807800
00807800
01fff800
03003800
02003c00
06003c00
04003c00
08001c00
18001e00
38001e00
fe00ff80
ENDCHAR
STARTCHAR Adiaeresis
ENCODING 196
SWIDTH 747 0
DWIDTH 25 0
BBX 25 29 0 0
BITMAP
00070e00
00071e00
00000000
00000000
00004000
0000c000
0000e000
0001e000
0002e000
0002e000
0004e000
0004f000
0008f000
0010f000
00107000
00207000
00607800
00407800
00807800
00807800
01fff800
03003800
02003c00
06003c00
04003c00
08001c00
18001e00
38001e00
fe00ff80
ENDCHAR
STARTCHAR Lacute
ENCODING 197
SWIDTH 572 0
DWIDTH 19 0
BBX 19 31 1 0
BITMAP
0003c0
000700
000e00
001800
003000
000000
07fe00
01f000
01e000
01e000
01e000
01c000
01c000
01c000
03c000
03c000
038000
038000
038000
078000
078000
070000
070000
070000
0f0000
0f0000
0f0000
0e0060
1e0060
3e00c0
ffffc0
ENDCHAR
STARTCHAR Cacute
ENCODING 198
SWIDTH 714 0
DWIDTH 24 0
BBX 23 31 4 0
BITMAP
00001e
000038
000070
0000c0
000180
000000
000ff8
00783e
01e00e
03800c
07000c
0e000c
1e0000
3c0000
3c0000
780000
780000
700000
f00000
f00000
f00000
f00000
f00000
f00000
f00000
700000
780000
380000
3c0060
0f03c0
03fc00
ENDCHAR
STARTCHAR Ccedilla
ENCODING 199
SWIDTH 714 0
DWIDTH 24 0
BBX 23 32 4 -7
BITMAP
000ff8
00783e
01e00e
03800c
07000c
0e000c
1e0000
3c0000
3c0000
780000
780000
700000
f00000
f00000
f00000
f00000
f00000
f00000
f00000
700000
780000
380000
3c0060
0f03c0
03fc00
010000
038000
01c000
00c000
00c000
01c000
078000
ENDCHAR
STARTCHAR Ccaron
ENCODING 200
SWIDTH 714 0
DWIDTH 24 0
BBX 23 31 4 0
BITMAP
00180c
000c38
000e70
0007e0
0007c0
000000
000ff8
00783e
01e00e
03800c
07000c
0e000c
1e0000
3c0000
3c0000
780000
780000
700000
f00000
f00000
f00000
f00000
f00000
f00000
f00000
700000
780000
380000
3c0060
0f03c0
03fc00
ENDCHAR
STARTCHAR Eacute
ENCODING 201
SWIDTH 569 0
DWIDTH 19 0
BBX 22 32 1 0
BITMAP
0000f0
0001c0
000380
000600
000c00
000000
000000
07fffc
00e00c
00e018
01e018
01e000
01e000
01c000
01c000
01c000
03c000
03c040
03c0c0
03ffc0
078080
078080
078000
070000
070000
0f0000
0f0000
0f0000
0e0060
1e0060
3f00c0
ffffc0
ENDCHAR
STARTCHAR Eogonek
ENCODING 202
SWIDTH 569 0
DWIDTH 19 0
BBX 22 30 1 -5
BITMAP
07fffc
00e00c
00e018
01e018
01e000
01e000
01c000
01c000
01c000
03c000
03c040
03c0c0
03ffc0
078080
078080
078000
070000
070000
0f0000
0f0000
0f0000
0e0060
1e0060
3f00c0
ffffc0
003000
006000
00c000
00e000
007800
ENDCHAR
STARTCHAR Ediaeresis
ENCODING 203
SWIDTH 569 0
DWIDTH 19 0
BBX 22 29 1 0
BITMAP
003870
0038f0
000000
000000
07fffc
00e00c
00e018
01e018
01e000
01e000
01c000
01c000
01c000
03c000
03c040
03c0c0
03ffc0
078080
078080
078000
070000
070000
0f0000
0f0000
0f0000
0e0060
1e0060
3f00c0
ffffc0
ENDCHAR
STARTCHAR Ecaron
ENCODING 204
SWIDTH 569 0
DWIDTH 19 0
BBX 22 31 1 0
BITMAP
003018
001870
001ce0
000fc0
000f80
000000
07fffc
00e00c
00e018
01e018
01e000
01e000
01c000
01c000
01c000
03c000
03c040
03c0c0
03ffc0
078080
078080
078000
070000
070000
0f0000
0f0000
0f0000
0e0060
1e0060
3f00c0
ffffc0
ENDCHAR
STARTCHAR Iacute
ENCODING 205
SWIDTH 325 0
DWIDTH 11 0
BBX 16 32 1 0
BITMAP
000f
001c
0038
0060
00c0
0000
0000
07fe
00f8
00f0
00e0
01e0
01e0
01c0
01c0
01c0
03c0
03c0
0380
0380
0380
0780
0780
0700
0700
0f00
0f00
0f00
0e00
1e00
3e00
ffc0
ENDCHAR
STARTCHAR Icircumflex
ENCODING 206
SWIDTH 325 0
DWIDTH 11 0
BBX 16 32 1 0
BITMAP
007c
00fc
01ce
0386
0603
0000
0000
07fe
00f8
00f0
00e0
01e0
01e0
01c0
01c0
01c0
03c0
03c0
0380
0380
0380
0780
0780
0700
0700
0f00
0f00
0f00
0e00
1e00
3e00
ffc0
ENDCHAR
STARTCHAR Dcaron
ENCODING 207
SWIDTH 770 0
DWIDTH 26 0
BBX 26 31 1 0
BITMAP
00180c00
000c3800
000e7000
0007e000
0007c000
00000000
07fff800
01e03e00
01e00f00
01e00780
01c00380
01c003c0
01c003c0
03c003c0
03c003c0
038003c0
038003c0
038003c0
078003c0
07800380
07800380
07000780
07000700
0f000f00
0f000e00
0f001e00
0e003c00
0e007800
1e00f000
3f03c000
fffe0000
ENDCHAR
STARTCHAR Dstroke
ENCODING 208
SWIDTH 770 0
DWIDTH 26 0
BBX 26 25 1 0
BITMAP
07fff800
01e03e00
01e00f00
01e00780
01c00380
01c003c0
01c003c0
03c003c0
03c003c0
03c003c0
038003c0
038003c0
3ffe03c0
07800380
07800380
07000780
07000700
0f000f00
0f000e00
0f001e00
0e003c00
0e007800
1e00f000
3f03c000
fffe0000
ENDCHAR
STARTCHAR Nacute
ENCODING 209
SWIDTH 762 0
DWIDTH 26 0
BBX 29 31 1 0
BITMAP
00000780
00000e00
00001c00
00003000
00006000
00000000
07c003f8
01e000e0
01e000c0
01f000c0
01f80080
01780080
013c0080
033c0180
031e0180
031e0100
020f0100
02070100
06078300
06038300
0603c200
0601e200
0401e200
0400f600
0c00f600
0c007e00
0c003c00
08003c00
18001c00
38001c00
ff000c00
ENDCHAR
STARTCHAR Ncaron
ENCODING 210
SWIDTH 762 0
DWIDTH 26 0
BBX 29 31 1 0
BITMAP
00060300
00030e00
00039c00
0001f800
0001f000
00000000
07c003f8
01e000e0
01e000c0
01f000c0
01f80080
01780080
013c0080
033c0180
031e0180
031e0100
020f0100
02070100
06078300
06038300
0603c200
0601e200
0401e200
0400f600
0c00f600
0c007e00
0c003c00
08003c00
18001c00
38001c00
ff000c00
ENDCHAR
STARTCHAR Oacute
ENCODING 211
SWIDTH 783 0
DWIDTH 27 0
BBX 24 32 4 0
BITMAP
000078
0000e0
0001c0
000300
000600
000000
000000
001fc0
007070
01c03c
03801c
07000e
0e000e
1c000f
3c000f
38000f
78000f
78000f
70000f
f0000f
f0000e
f0001e
f0001e
f0001c
f0003c
f00038
f00070
7000e0
7801c0
3c0380
0e0e00
03f800
ENDCHAR
STARTCHAR Ocircumflex
ENCODING 212
SWIDTH 783 0
DWIDTH 27 0
BBX 24 32 4 0
BITMAP
0007c0
000fc0
001ce0
003860
006030
000000
000000
001fc0
007070
01c03c
03801c
07000e
0e000e
1c000f
3c000f
38000f
78000f
78000f
70000f
f0000f
f0000e
f0001e
f0001e
f0001c
f0003c
f00038
f00070
7000e0
7801c0
3c0380
0e0e00
03f800
ENDCHAR
STARTCHAR Odoubleacute
ENCODING 213
SWIDTH 783 0
DWIDTH 27 0
BBX 24 31 4 0
BITMAP
000077
0000cc
000198
000330
000660
000000
001fc0
007070
01c03c
03801c
07000e
0e000e
1c000f
3c000f
38000f
78000f
78000f
70000f
f0000f
f0000e
f0001e
f0001e
f0001c
f0003c
f00038
f00070
7000e0
7801c0
3c0380
0e0e00
03f800
ENDCHAR
STARTCHAR Odiaeresis
ENCODING 214
SWIDTH 783 0
DWIDTH 27 0
BBX 24 29 4 0
BITMAP
003870
0038f0
000000
000000
001fc0
007070
01c03c
03801c
07000e
0e000e
1c000f
3c000f
38000f
78000f
78000f
70000f
f0000f
f0000e
f0001e
f0001e
f0001c
f0003c
f00038
f00070
7000e0
7801c0
3c0380
0e0e00
03f800
ENDCHAR
STARTCHAR multiply
ENCODING 215
SWIDTH 608 0
DWIDTH 21 0
BBX 23 21 1 0
BITMAP
080002
08000e
04001c
020038
030070
0100c0
008180
004300
006600
002c00
003800
007800
00ec00
01c400
030200
060100
0c0180
180080
700040
e00020
400020
ENDCHAR
STARTCHAR Rcaron
ENCODING 216
SWIDTH 686 0
DWIDTH 23 0
BBX 23 31 1 0
BITMAP
003018
001870
001ce0
000fc0
000f80
000000
07ffe0
00e0f8
00e03c
00e03c
01e01c
01e03c
01c03c
01c03c
01c038
03c078
03c0f0
0383c0
03ff00
078f00
078f00
078780
070780
0703c0
0f03c0
0f01e0
0f01e0
0e00f0
1e00f0
3e0078
ffc07e
ENDCHAR
STARTCHAR Uring
ENCODING 217
SWIDTH 727 0
DWIDTH 25 0
BBX 24 31 5 0
BITMAP
001c00
002200
002200
002200
001c00
000000
ffc0ff
1f001c
1e0018
1c0010
1c0030
3c0030
3c0030
380020
380020
380060
780060
780060
700040
700040
7000c0
f000c0
f000c0
e00080
e00180
e00180
f00300
700200
780600
3c1800
0fe000
ENDCHAR
STARTCHAR Uacute
ENCODING 218
SWIDTH 727 0
DWIDTH 25 0
BBX 24 32 5 0
BITMAP
0001e0
000380
000700
000c00
001800
000000
000000
ffc0ff
1f001c
1e0018
1c0010
1c0030
3c0030
3c0030
380020
380020
380060
780060
780060
700040
700040
7000c0
f000c0
f000c0
e00080
e00180
e00180
f00300
700200
780600
3c1800
0fe000
ENDCHAR
STARTCHAR Udoubleacute
ENCODING 219
SWIDTH 727 0
DWIDTH 25 0
BBX 24 31 5 0
BITMAP
0003b8
000660
000cc0
001980
003300
000000
ffc0ff
1f001c
1e0018
1c0010
1c0030
3c0030
3c0030
380020
380020
380060
780060
780060
700040
700040
7000c0
f000c0
f000c0
e00080
e00180
e00180
f00300
700200
780600
3c1800
0fe000
ENDCHAR
STARTCHAR Udiaeresis
ENCODING 220
SWIDTH 727 0
DWIDTH 25 0
BBX 24 29 5 0
BITMAP
00e1c0
00e3c0
000000
000000
ffc0ff
1f001c
1e0018
1c0010
1c0030
3c0030
3c0030
380020
380020
380060
780060
780060
700040
700040
7000c0
f000c0
f000c0
e00080
e00180
e00180
f00300
700200
780600
3c1800
0fe000
ENDCHAR
STARTCHAR Yacute
ENCODING 221
SWIDTH 663 0
DWIDTH 23 0
BBX 23 32 4 0
BITMAP
0003c0
000700
000e00
001800
003000
000000
000000
ff80fe
3e0038
3e0030
1e0060
1e0040
0f0080
0f0100
070200
078600
078400
038800
03d000
01e000
01e000
01c000
01c000
01c000
03c000
03c000
038000
038000
078000
078000
0f8000
3ff000
ENDCHAR
STARTCHAR Tcedilla
ENCODING 222
SWIDTH 663 0
DWIDTH 23 0
BBX 22 33 5 -8
BITMAP
7ffffc
60780c
c07808
c07018
007000
007000
00f000
00f000
00e000
00e000
00e000
01e000
01e000
01e000
01c000
01c000
03c000
03c000
03c000
038000
038000
078000
078000
0f8000
7ff000
001000
002000
007000
003800
001800
001800
003800
00f000
ENDCHAR
STARTCHAR ssharp
ENCODING 223
SWIDTH 603 0
DWIDTH 20 0
BBX 18 34 2 -7
BITMAP
003e00
00e780
01c380
0183c0
0383c0
038380
078300
070600
070c00
071800
073000
0f7000
0e7000
0e7800
0e7c00
0e3e00
1e1f00
1c0f80
1c07c0
1c03c0
1c01c0
3c01c0
3cc1c0
38c1c0
38c180
38c300
787c00
780000
700000
700000
700000
f00000
f00000
e00000
ENDCHAR
STARTCHAR racute
ENCODING 224
SWIDTH 470 0
DWIDTH 16 0
BBX 15 24 4 0
BITMAP
001e
0038
0070
00c0
0180
0000
fe0e
1c1c
1c7c
1cf8
1cc0
3d00
3a00
3c00
3c00
3800
7800
7800
7000
7000
7000
f000
f000
e000
ENDCHAR
STARTCHAR aacute
ENCODING 225
SWIDTH 608 0
DWIDTH 21 0
BBX 18 25 3 0
BITMAP
0003c0
000700
000e00
001800
003000
000000
000000
00ffc0
0107c0
0203c0
040380
0c0380
180380
380780
380780
700700
700f00
f01f00
f01f00
f02f00
f06e00
f0ce00
f18e00
7f0e00
3c1fc0
ENDCHAR
STARTCHAR acircumflex
ENCODING 226
SWIDTH 608 0
DWIDTH 21 0
BBX 18 25 3 0
BITMAP
001f00
003f00
007380
00e180
0180c0
000000
000000
00ffc0
0107c0
0203c0
040380
0c0380
180380
380780
380780
700700
700f00
f01f00
f01f00
f02f00
f06e00
f0ce00
f18e00
7f0e00
3c1fc0
ENDCHAR
STARTCHAR abreve
ENCODING 227
SWIDTH 608 0
DWIDTH 21 0
BBX 19 24 3 0
BITMAP
008020
00c040
00e380
007f00
003e00
000000
00ffc0
0107c0
0203c0
040380
0c0380
180380
380780
380780
700700
700f00
f01f00
f01f00
f02f00
f06e00
f0ce00
f18e00
7f0e00
3c1fc0
ENDCHAR
STARTCHAR adiaeresis
ENCODING 228
SWIDTH 608 0
DWIDTH 21 0
BBX 18 22 3 0
BITMAP
00e1c0
00e3c0
000000
000000
00ffc0
0107c0
0203c0
040380
0c0380
180380
380780
380780
700700
700f00
f01f00
f01f00
f02f00
f06e00
f0ce00
f18e00
7f0e00
3c1fc0
ENDCHAR
STARTCHAR lacute
ENCODING 229
SWIDTH 289 0
DWIDTH 10 0
BBX 14 32 3 0
BITMAP
003c
0070
00e0
0180
0300
0000
3f80
0780
0700
0700
0700
0f00
0f00
0e00
0e00
1e00
1e00
1e00
1c00
1c00
3c00
3c00
3c00
3800
3800
7800
7800
7000
7000
7000
f000
fe00
ENDCHAR
STARTCHAR cacute
ENCODING 230
SWIDTH 487 0
DWIDTH 17 0
BBX 18 24 3 0
BITMAP
0003c0
000700
000e00
001800
003000
000000
00fe00
030e00
040600
0c0600
180600
380000
700000
700000
700000
f00000
f00000
f00000
f00000
f00000
f00000
700800
383000
1fc000
ENDCHAR
STARTCHAR ccedilla
ENCODING 231
SWIDTH 487 0
DWIDTH 17 0
BBX 15 25 3 -7
BITMAP
00fe
030e
0406
0c06
1806
3800
7000
7000
7000
f000
f000
f000
f000
f000
f000
7008
3830
1fc0
0800
1c00
0e00
0600
0600
0e00
3c00
ENDCHAR
STARTCHAR ccaron
ENCODING 232
SWIDTH 487 0
DWIDTH 17 0
BBX 17 24 3 0
BITMAP
030180
018700
01ce00
00fc00
00f800
000000
00fe00
030e00
040600
0c0600
180600
380000
700000
700000
700000
f00000
f00000
f00000
f00000
f00000
f00000
700800
383000
1fc000
ENDCHAR
STARTCHAR eacute
ENCODING 233
SWIDTH 518 0
DWIDTH 18 0
BBX 17 25 3 0
BITMAP
000780
000e00
001c00
003000
006000
000000
000000
00f800
031c00
041e00
0c0e00
181e00
381c00
701c00
703800
707000
f1e000
ff0000
e00000
e00000
f00000
f00600
700c00
3c3000
1fc000
ENDCHAR
STARTCHAR eogonek
ENCODING 234
SWIDTH 518 0
DWIDTH 18 0
BBX 15 23 3 -5
BITMAP
00f8
031c
041e
0c0e
181e
381c
701c
7038
7070
f1e0
ff00
e000
e000
f000
f006
700c
3c30
1fc0
0180
0300
0600
0700
03c0
ENDCHAR
STARTCHAR ediaeresis
ENCODING 235
SWIDTH 518 0
DWIDTH 18 0
BBX 16 22 3 0
BITMAP
0387
038f
0000
0000
00f8
031c
041e
0c0e
181e
381c
701c
7038
7070
f1e0
ff00
e000
e000
f000
f006
700c
3c30
1fc0
ENDCHAR
STARTCHAR ecaron
ENCODING 236
SWIDTH 518 0
DWIDTH 18 0
BBX 17 24 3 0
BITMAP
030180
018700
01ce00
00fc00
00f800
000000
00f800
031c00
041e00
0c0e00
181e00
381c00
701c00
703800
707000
f1e000
ff0000
e00000
e00000
f00000
f00600
700c00
3c3000
1fc000
ENDCHAR
STARTCHAR iacute
ENCODING 237
SWIDTH 289 0
DWIDTH 10 0
BBX 12 25 3 0
BITMAP
00f0
01c0
0380
0600
0c00
0000
0000
fe00
1e00
1c00
1c00
1c00
1c00
3c00
3800
3800
3800
3800
7800
7000
7000
7000
7000
f000
fe00
ENDCHAR
STARTCHAR icircumflex
ENCODING 238
SWIDTH 289 0
DWIDTH 10 0
BBX 12 25 3 0
BITMAP
07c0
0fc0
1ce0
3860
6030
0000
0000
fe00
1e00
1c00
1c00
1c00
1c00
3c00
3800
3800
3800
3800
7800
7000
7000
7000
7000
f000
fe00
ENDCHAR
STARTCHAR dcaron
ENCODING 239
SWIDTH 840 0
DWIDTH 28 0
BBX 27 29 3 0
BITMAP
000001e0
000001e0
000003e0
0007f3c0
0000f0c0
0000e1c0
0000e180
0000e180
0000e700
0001e600
0001c000
00ffc000
0103c000
0201c000
0403c000
0c038000
18038000
38038000
38038000
70078000
700f0000
f00f0000
f0170000
f0370000
f06f0000
f0ce0000
f18e0000
7f0e0000
3c1fc000
ENDCHAR
STARTCHAR dstroke
ENCODING 240
SWIDTH 690 0
DWIDTH 23 0
BBX 22 26 3 0
BITMAP
0007f0
0000f0
0000e0
0000e0
0007fc
0007fc
0001e0
0001c0
00ffc0
0103c0
0201c0
0403c0
0c0380
180380
380380
380380
700780
700f00
f00f00
f01700
f03700
f06f00
f0ce00
f18e00
7f0e00
3c1fc0
ENDCHAR
STARTCHAR nacute
ENCODING 241
SWIDTH 631 0
DWIDTH 21 0
BBX 18 24 3 0
BITMAP
000780
000e00
001c00
003000
006000
000000
fe0f00
1e1f80
1c73c0
1cc3c0
1d8380
3d0380
3e0380
3e0380
3c0780
380700
780700
780700
700700
700f00
700e00
f00e00
f00e00
e01fc0
ENDCHAR
STARTCHAR ncaron
ENCODING 242
SWIDTH 631 0
DWIDTH 21 0
BBX 18 24 3 0
BITMAP
060300
030e00
039c00
01f800
01f000
000000
fe0f00
1e1f80
1c73c0
1cc3c0
1d8380
3d0380
3e0380
3e0380
3c0780
380700
780700
780700
700700
700f00
700e00
f00e00
f00e00
e01fc0
ENDCHAR
STARTCHAR oacute
ENCODING 243
SWIDTH 560 0
DWIDTH 19 0
BBX 17 25 3 0
BITMAP
000780
000e00
001c00
003000
006000
000000
000000
00fc00
030e00
0e0700
1c0700
1c0780
380780
780780
700780
700780
f00700
f00700
f00f00
f00e00
f01c00
f01800
703000
78e000
1f8000
ENDCHAR
STARTCHAR ocircumflex
ENCODING 244
SWIDTH 560 0
DWIDTH 19 0
BBX 17 25 3 0
BITMAP
003e00
007e00
00e700
01c300
030180
000000
000000
00fc00
030e00
0e0700
1c0700
1c0780
380780
780780
700780
700780
f00700
f00700
f00f00
f00e00
f01c00
f01800
703000
78e000
1f8000
ENDCHAR
STARTCHAR odoubleacute
ENCODING 245
SWIDTH 560 0
DWIDTH 19 0
BBX 19 24 3 0
BITMAP
000ee0
001980
003300
006600
00cc00
000000
00fc00
030e00
0e0700
1c0700
1c0780
380780
780780
700780
700780
f00700
f00700
f00f00
f00e00
f01c00
f01800
703000
78e000
1f8000
ENDCHAR
STARTCHAR odiaeresis
ENCODING 246
SWIDTH 560 0
DWIDTH 19 0
BBX 17 22 3 0
BITMAP
01c380
01c780
000000
000000
00fc00
030e00
0e0700
1c0700
1c0780
380780
780780
700780
700780
f00700
f00700
f00f00
f00e00
f01c00
f01800
703000
78e000
1f8000
ENDCHAR
STARTCHAR division
ENCODING 247
SWIDTH 608 0
DWIDTH 21 0
BBX 20 17 2 1
BITMAP
003800
003800
007800
000000
000000
000000
000000
000000
fffff0
000000
000000
000000
000000
000000
01c000
01c000
01c000
ENDCHAR
STARTCHAR rcaron
ENCODING 248
SWIDTH 470 0
DWIDTH 16 0
BBX 15 24 4 0
BITMAP
180c
0c38
0e70
07e0
07c0
0000
fe0e
1c1c
1c7c
1cf8
1cc0
3d00
3a00
3c00
3c00
3800
7800
7800
7000
7000
7000
f000
f000
e000
ENDCHAR
STARTCHAR uring
ENCODING 249
SWIDTH 630 0
DWIDTH 21 0
BBX 18 24 3 0
BITMAP
00e000
011000
011000
011000
00e000
000000
fe1fc0
1c03c0
1c0380
1c0380
3c0380
380380
380780
380700
380700
780f00
700f00
701f00
702e00
704e00
f08e00
f10e00
7e1e00
381fc0
ENDCHAR
STARTCHAR uacute
ENCODING 250
SWIDTH 630 0
DWIDTH 21 0
BBX 18 25 3 0
BITMAP
0003c0
000700
000e00
001800
003000
000000
000000
fe1fc0
1c03c0
1c0380
1c0380
3c0380
380380
380780
380700
380700
780f00
700f00
701f00
702e00
704e00
f08e00
f10e00
7e1e00
381fc0
ENDCHAR
STARTCHAR udoubleacute
ENCODING 251
SWIDTH 630 0
DWIDTH 21 0
BBX 18 24 3 0
BITMAP
001dc0
003300
006600
00cc00
019800
000000
fe1fc0
1c03c0
1c0380
1c0380
3c0380
380380
380780
380700
380700
780f00
700f00
701f00
702e00
704e00
f08e00
f10e00
7e1e00
381fc0
ENDCHAR
STARTCHAR udiaeresis
ENCODING 252
SWIDTH 630 0
DWIDTH 21 0
BBX 18 22 3 0
BITMAP
00e1c0
00e3c0
000000
000000
fe1fc0
1c03c0
1c0380
1c0380
3c0380
380380
380780
380700
380700
780f00
700f00
701f00
702e00
704e00
f08e00
f10e00
7e1e00
381fc0
ENDCHAR
STARTCHAR yacute
ENCODING 253
SWIDTH 558 0
DWIDTH 19 0
BBX 21 32 0 -7
BITMAP
0000f0
0001c0
000380
000600
000c00
000000
000000
3f0078
0f8038
078038
038038
038030
03c070
01c060
01c0c0
01c080
01c100
01e300
00e600
00e400
00e800
00f000
00f000
00e000
00c000
008000
010000
030000
0e0000
1c0000
380000
f80000
ENDCHAR
STARTCHAR tcedilla
ENCODING 254
SWIDTH 355 0
DWIDTH 12 0
BBX 11 31 4 -8
BITMAP
0200
0e00
1e00
1e00
1c00
ffe0
1c00
1c00
3c00
3800
3800
3800
7800
7800
7000
7000
7000
f000
f000
f000
7000
7000
3e00
0200
0400
0e00
0700
0300
0300
0700
1e00
ENDCHAR
STARTCHAR abovedot
ENCODING 255
SWIDTH 560 0
DWIDTH 19 0
BBX 4 3 12 22
BITMAP
70
f0
e0
ENDCHAR
ENDFONT
